<mxfile host="app.diagrams.net" modified="2024-04-03T14:16:05.545Z" agent="Mozilla/5.0 (Windows NT 10.0; Win64; x64) AppleWebKit/537.36 (KHTML, like Gecko) Chrome/121.0.0.0 Safari/537.36" etag="quBiVv1NSfSLl1Rd5LZ9" version="24.2.2" type="github">
  <diagram name="Seite-1" id="W0qJ5vpSVcxyYFi0nM3V">
    <mxGraphModel dx="1194" dy="750" grid="1" gridSize="10" guides="1" tooltips="1" connect="1" arrows="1" fold="1" page="1" pageScale="1" pageWidth="827" pageHeight="1169" math="0" shadow="0">
      <root>
        <mxCell id="0" />
        <mxCell id="1" parent="0" />
        <mxCell id="kHQiDmXWFG1dcJ18tVJ2-1" value="Personen-schäden" style="shape=cylinder3;whiteSpace=wrap;html=1;boundedLbl=1;backgroundOutline=1;size=15;fillColor=#dae8fc;strokeColor=#6c8ebf;" vertex="1" parent="1">
          <mxGeometry x="130" y="170" width="60" height="80" as="geometry" />
        </mxCell>
        <mxCell id="kHQiDmXWFG1dcJ18tVJ2-2" value="Flächen-schäden" style="shape=cylinder3;whiteSpace=wrap;html=1;boundedLbl=1;backgroundOutline=1;size=15;fillColor=#d5e8d4;strokeColor=#82b366;" vertex="1" parent="1">
          <mxGeometry x="380" y="170" width="60" height="80" as="geometry" />
        </mxCell>
        <mxCell id="kHQiDmXWFG1dcJ18tVJ2-3" value="monetäre Schäden" style="shape=cylinder3;whiteSpace=wrap;html=1;boundedLbl=1;backgroundOutline=1;size=15;fillColor=#e1d5e7;strokeColor=#9673a6;" vertex="1" parent="1">
          <mxGeometry x="600" y="170" width="60" height="80" as="geometry" />
        </mxCell>
        <mxCell id="kHQiDmXWFG1dcJ18tVJ2-4" value="CESARE Schäden" style="ellipse;whiteSpace=wrap;html=1;fillColor=#f8cecc;strokeColor=#b85450;" vertex="1" parent="1">
          <mxGeometry x="350" y="10" width="120" height="80" as="geometry" />
        </mxCell>
        <mxCell id="kHQiDmXWFG1dcJ18tVJ2-5" value="" style="endArrow=classic;html=1;rounded=0;exitX=0.5;exitY=0;exitDx=0;exitDy=0;exitPerimeter=0;" edge="1" parent="1">
          <mxGeometry width="50" height="50" relative="1" as="geometry">
            <mxPoint x="170" y="170" as="sourcePoint" />
            <mxPoint x="360" y="70" as="targetPoint" />
          </mxGeometry>
        </mxCell>
        <mxCell id="kHQiDmXWFG1dcJ18tVJ2-6" value="" style="endArrow=classic;html=1;rounded=0;exitX=0.5;exitY=0;exitDx=0;exitDy=0;exitPerimeter=0;" edge="1" parent="1" source="kHQiDmXWFG1dcJ18tVJ2-2">
          <mxGeometry width="50" height="50" relative="1" as="geometry">
            <mxPoint x="410" y="160" as="sourcePoint" />
            <mxPoint x="410" y="90" as="targetPoint" />
          </mxGeometry>
        </mxCell>
        <mxCell id="kHQiDmXWFG1dcJ18tVJ2-7" value="" style="endArrow=classic;html=1;rounded=0;exitX=0.367;exitY=-0.05;exitDx=0;exitDy=0;exitPerimeter=0;entryX=0.967;entryY=0.7;entryDx=0;entryDy=0;entryPerimeter=0;" edge="1" parent="1" source="kHQiDmXWFG1dcJ18tVJ2-3" target="kHQiDmXWFG1dcJ18tVJ2-4">
          <mxGeometry width="50" height="50" relative="1" as="geometry">
            <mxPoint x="480" y="140" as="sourcePoint" />
            <mxPoint x="460" y="60" as="targetPoint" />
          </mxGeometry>
        </mxCell>
        <mxCell id="kHQiDmXWFG1dcJ18tVJ2-9" value="VIOLA" style="rounded=0;whiteSpace=wrap;html=1;" vertex="1" parent="1">
          <mxGeometry x="115" y="270" width="90" height="20" as="geometry" />
        </mxCell>
        <mxCell id="kHQiDmXWFG1dcJ18tVJ2-10" value="GEORIOS" style="rounded=0;whiteSpace=wrap;html=1;" vertex="1" parent="1">
          <mxGeometry x="115" y="300" width="90" height="20" as="geometry" />
        </mxCell>
        <mxCell id="kHQiDmXWFG1dcJ18tVJ2-11" value="LAWIS" style="rounded=0;whiteSpace=wrap;html=1;" vertex="1" parent="1">
          <mxGeometry x="115" y="330" width="90" height="20" as="geometry" />
        </mxCell>
        <mxCell id="kHQiDmXWFG1dcJ18tVJ2-13" value="BOKU" style="rounded=0;whiteSpace=wrap;html=1;" vertex="1" parent="1">
          <mxGeometry x="365" y="270" width="90" height="20" as="geometry" />
        </mxCell>
        <mxCell id="kHQiDmXWFG1dcJ18tVJ2-15" value="Katastrophenfonds" style="swimlane;fontStyle=0;childLayout=stackLayout;horizontal=1;startSize=30;horizontalStack=0;resizeParent=1;resizeParentMax=0;resizeLast=0;collapsible=1;marginBottom=0;whiteSpace=wrap;html=1;" vertex="1" parent="1">
          <mxGeometry x="580" y="270" width="140" height="120" as="geometry" />
        </mxCell>
        <mxCell id="kHQiDmXWFG1dcJ18tVJ2-16" value="Privatvermögen" style="text;strokeColor=none;fillColor=none;align=left;verticalAlign=middle;spacingLeft=4;spacingRight=4;overflow=hidden;points=[[0,0.5],[1,0.5]];portConstraint=eastwest;rotatable=0;whiteSpace=wrap;html=1;" vertex="1" parent="kHQiDmXWFG1dcJ18tVJ2-15">
          <mxGeometry y="30" width="140" height="30" as="geometry" />
        </mxCell>
        <mxCell id="kHQiDmXWFG1dcJ18tVJ2-17" value="Gemeindevermögen" style="text;strokeColor=none;fillColor=none;align=left;verticalAlign=middle;spacingLeft=4;spacingRight=4;overflow=hidden;points=[[0,0.5],[1,0.5]];portConstraint=eastwest;rotatable=0;whiteSpace=wrap;html=1;" vertex="1" parent="kHQiDmXWFG1dcJ18tVJ2-15">
          <mxGeometry y="60" width="140" height="30" as="geometry" />
        </mxCell>
        <mxCell id="kHQiDmXWFG1dcJ18tVJ2-18" value="Landesvermögen" style="text;strokeColor=none;fillColor=none;align=left;verticalAlign=middle;spacingLeft=4;spacingRight=4;overflow=hidden;points=[[0,0.5],[1,0.5]];portConstraint=eastwest;rotatable=0;whiteSpace=wrap;html=1;" vertex="1" parent="kHQiDmXWFG1dcJ18tVJ2-15">
          <mxGeometry y="90" width="140" height="30" as="geometry" />
        </mxCell>
        <mxCell id="kHQiDmXWFG1dcJ18tVJ2-19" value="CESARE Ereignisse" style="ellipse;whiteSpace=wrap;html=1;fillColor=#ffe6cc;strokeColor=#d79b00;" vertex="1" parent="1">
          <mxGeometry x="350" y="420" width="120" height="80" as="geometry" />
        </mxCell>
        <mxCell id="kHQiDmXWFG1dcJ18tVJ2-20" value="EREIGNISIDENTIFIKATION" style="rounded=0;whiteSpace=wrap;html=1;" vertex="1" parent="1">
          <mxGeometry x="240" y="525" width="340" height="60" as="geometry" />
        </mxCell>
        <mxCell id="kHQiDmXWFG1dcJ18tVJ2-21" value="" style="endArrow=classic;html=1;rounded=0;" edge="1" parent="1">
          <mxGeometry width="50" height="50" relative="1" as="geometry">
            <mxPoint x="410" y="520" as="sourcePoint" />
            <mxPoint x="409.5" y="500" as="targetPoint" />
          </mxGeometry>
        </mxCell>
        <mxCell id="kHQiDmXWFG1dcJ18tVJ2-22" value="Ereignisdaten" style="swimlane;fontStyle=0;childLayout=stackLayout;horizontal=1;startSize=30;horizontalStack=0;resizeParent=1;resizeParentMax=0;resizeLast=0;collapsible=1;marginBottom=0;whiteSpace=wrap;html=1;" vertex="1" parent="1">
          <mxGeometry x="240" y="630" width="140" height="120" as="geometry" />
        </mxCell>
        <mxCell id="kHQiDmXWFG1dcJ18tVJ2-23" value="HWFDB" style="text;strokeColor=none;fillColor=none;align=left;verticalAlign=middle;spacingLeft=4;spacingRight=4;overflow=hidden;points=[[0,0.5],[1,0.5]];portConstraint=eastwest;rotatable=0;whiteSpace=wrap;html=1;" vertex="1" parent="kHQiDmXWFG1dcJ18tVJ2-22">
          <mxGeometry y="30" width="140" height="30" as="geometry" />
        </mxCell>
        <mxCell id="kHQiDmXWFG1dcJ18tVJ2-24" value="GEORIOS" style="text;strokeColor=none;fillColor=none;align=left;verticalAlign=middle;spacingLeft=4;spacingRight=4;overflow=hidden;points=[[0,0.5],[1,0.5]];portConstraint=eastwest;rotatable=0;whiteSpace=wrap;html=1;" vertex="1" parent="kHQiDmXWFG1dcJ18tVJ2-22">
          <mxGeometry y="60" width="140" height="30" as="geometry" />
        </mxCell>
        <mxCell id="kHQiDmXWFG1dcJ18tVJ2-25" value="VIOLA" style="text;strokeColor=none;fillColor=none;align=left;verticalAlign=middle;spacingLeft=4;spacingRight=4;overflow=hidden;points=[[0,0.5],[1,0.5]];portConstraint=eastwest;rotatable=0;whiteSpace=wrap;html=1;" vertex="1" parent="kHQiDmXWFG1dcJ18tVJ2-22">
          <mxGeometry y="90" width="140" height="30" as="geometry" />
        </mxCell>
        <mxCell id="kHQiDmXWFG1dcJ18tVJ2-26" value="meteorologische Daten" style="rounded=0;whiteSpace=wrap;html=1;" vertex="1" parent="1">
          <mxGeometry x="440" y="660" width="160" height="60" as="geometry" />
        </mxCell>
        <mxCell id="kHQiDmXWFG1dcJ18tVJ2-27" value="" style="endArrow=classic;html=1;rounded=0;exitX=0.65;exitY=-0.033;exitDx=0;exitDy=0;exitPerimeter=0;" edge="1" parent="1" source="kHQiDmXWFG1dcJ18tVJ2-22">
          <mxGeometry width="50" height="50" relative="1" as="geometry">
            <mxPoint x="340" y="620" as="sourcePoint" />
            <mxPoint x="380" y="585" as="targetPoint" />
          </mxGeometry>
        </mxCell>
        <mxCell id="kHQiDmXWFG1dcJ18tVJ2-28" value="" style="endArrow=classic;html=1;rounded=0;" edge="1" parent="1">
          <mxGeometry width="50" height="50" relative="1" as="geometry">
            <mxPoint x="520" y="655" as="sourcePoint" />
            <mxPoint x="480" y="585" as="targetPoint" />
          </mxGeometry>
        </mxCell>
      </root>
    </mxGraphModel>
  </diagram>
</mxfile>
